<?xml version="1.0" encoding="iso-8859-1"?>
<!-- Generator: Adobe Illustrator 19.0.0, SVG Export Plug-In . SVG Version: 6.00 Build 0)  -->
<svg version="1.1" id="Capa_1" xmlns="http://www.w3.org/2000/svg" xmlns:xlink="http://www.w3.org/1999/xlink" x="0px" y="0px"
	 viewBox="0 0 496 496" style="enable-background:new 0 0 496 496;" xml:space="preserve">
<circle style="fill:#FFD071;" cx="248" cy="152.672" r="152"/>
<path d="M427.72,304.672h-2.52c-7.712,0-15.096,2.4-21.336,6.944l-10.936,7.952c-6.768-9.184-17.6-14.896-29.208-14.896h-2.52
	c-7.712,0-15.096,2.4-21.336,6.944L261.4,368.672H232v16h98.6l82.664-60.12c3.496-2.536,7.616-3.88,11.928-3.88h2.52
	c11.184,0,20.288,9.104,20.288,20.288c0,5.424-2.112,10.512-5.936,14.344l-76.976,76.968c-10.584,10.576-24.632,16.4-39.592,16.4
	h-159.92l-50.016,33.344l8.872,13.312l45.992-30.656h155.072c19.232,0,37.312-7.488,50.904-21.088l76.976-76.968
	C460.224,359.76,464,350.656,464,340.96C464,320.952,447.728,304.672,427.72,304.672z M325.4,368.672h-36.8l60.664-44.12
	c3.496-2.536,7.616-3.88,11.928-3.88h2.52c6.472,0,12.4,3.264,16.184,8.36L325.4,368.672z"/>
<path d="M208,364.672c0,11.024-8.968,20-20,20h-60v16h60c19.848,0,36-16.152,36-36s-16.152-36-36-36h-78.264L3.808,393.856
	L12.2,407.48l102.064-62.808H188C199.032,344.672,208,353.648,208,364.672z"/>
<path d="M264,144.672h-32c-13.232,0-24-10.768-24-24s10.768-24,24-24h32c13.232,0,24,10.768,24,24h16c0-22.056-17.944-40-40-40h-8
	v-32h-16v32h-8c-22.056,0-40,17.944-40,40s17.944,40,40,40h32c13.232,0,24,10.768,24,24s-10.768,24-24,24h-32
	c-13.232,0-24-10.768-24-24h-16c0,22.056,17.944,40,40,40h8v32h16v-32h8c22.056,0,40-17.944,40-40S286.056,144.672,264,144.672z"/>
<rect x="72" y="248.672" width="16" height="16"/>
<rect x="72" y="280.672" width="16" height="16"/>
<rect x="88" y="264.672" width="16" height="16"/>
<rect x="56" y="264.672" width="16" height="16"/>
<rect x="16" y="16.672" width="16" height="16"/>
<rect x="16" y="48.672" width="16" height="16"/>
<rect x="32" y="32.672" width="16" height="16"/>
<rect y="32.672" width="16" height="16"/>
<rect x="464" y="120.672" width="16" height="16"/>
<rect x="464" y="152.672" width="16" height="16"/>
<rect x="480" y="136.672" width="16" height="16"/>
<rect x="448" y="136.672" width="16" height="16"/>
<g>
</g>
<g>
</g>
<g>
</g>
<g>
</g>
<g>
</g>
<g>
</g>
<g>
</g>
<g>
</g>
<g>
</g>
<g>
</g>
<g>
</g>
<g>
</g>
<g>
</g>
<g>
</g>
<g>
</g>
</svg>
