<svg height="512" viewBox="0 0 512 512" width="512" xmlns="http://www.w3.org/2000/svg"><g id="Flat"><path d="m488 120h-352v-40l176-56 176 56z" fill="#348ed8"/><circle cx="312" cy="72" fill="#2d7dbe" r="24"/><path d="m152 152h48v184h-48z" fill="#3289d1"/><path d="m240 152h48v184h-48z" fill="#3289d1"/><path d="m336 152h48v184h-48z" fill="#3289d1"/><path d="m424 152h48v184h-48z" fill="#3289d1"/><g fill="#2d7dbe"><path d="m152 152h48v24h-48z"/><path d="m240 152h48v24h-48z"/><path d="m336 152h48v24h-48z"/><path d="m424 152h48v24h-48z"/></g><path d="m136 336h352v64h-352z" fill="#348ed8"/><path d="m216 336h192v64h-192z" fill="#2d7dbe"/><path d="m216 368h192v32h-192z" fill="#2c86d1"/><path d="m216 360h192v16h-192z" fill="#2b78b7"/><path d="m472 152h-320l-16-16v-16h352v16z" fill="#2c86d1"/><path d="m256 72h16v16h-16z" fill="#2d7dbe"/><path d="m352 72h16v16h-16z" fill="#2d7dbe"/><path d="m16 296h304v192h-304z" fill="#749148"/><path d="m16 232h304v160h-304z" fill="#96b268"/><path d="m16 448h304v16h-304z" fill="#678240"/><path d="m16 416h304v16h-304z" fill="#678240"/><path d="m264 360h-192a24 24 0 0 0 -24-24v-48a24 24 0 0 0 24-24h192a24 24 0 0 0 24 24v48a24 24 0 0 0 -24 24z" fill="#88a35a"/><path d="m80 304h16v16h-16z" fill="#96b268"/><path d="m240 304h16v16h-16z" fill="#96b268"/><circle cx="168" cy="312" fill="#96b268" r="48"/><path d="m144 232h48v256h-48z" fill="#ffb431"/><path d="m144 392h48v96h-48z" fill="#f9a91b"/><path d="m192 232h16v160h-16z" fill="#8da662"/><path d="m192 264h16v96h-16z" fill="#7f9954"/><path d="m192 392h16v96h-16z" fill="#678240"/></g></svg>