<svg height="512" viewBox="0 0 512 512" width="512" xmlns="http://www.w3.org/2000/svg"><g id="Filled_outline" data-name="Filled outline"><path d="m488 120h-352v-40l176-56 176 56z" fill="#348ed8"/><circle cx="312" cy="72" fill="#2d7dbe" r="24"/><path d="m152 152h48v184h-48z" fill="#3289d1"/><path d="m240 152h48v184h-48z" fill="#3289d1"/><path d="m336 152h48v184h-48z" fill="#3289d1"/><path d="m424 152h48v184h-48z" fill="#3289d1"/><g fill="#2d7dbe"><path d="m152 152h48v24h-48z"/><path d="m240 152h48v24h-48z"/><path d="m336 152h48v24h-48z"/><path d="m424 152h48v24h-48z"/></g><path d="m136 336h352v64h-352z" fill="#348ed8"/><path d="m216 336h192v64h-192z" fill="#2d7dbe"/><path d="m216 368h192v32h-192z" fill="#2c86d1"/><path d="m216 360h192v16h-192z" fill="#2b78b7"/><path d="m472 152h-320l-16-16v-16h352v16z" fill="#2c86d1"/><path d="m16 296h304v192h-304z" fill="#749148"/><path d="m16 232h304v160h-304z" fill="#96b268"/><path d="m264 360h-192a24 24 0 0 0 -24-24v-48a24 24 0 0 0 24-24h192a24 24 0 0 0 24 24v48a24 24 0 0 0 -24 24z" fill="#88a35a"/><circle cx="168" cy="312" fill="#96b268" r="48"/><path d="m144 232h48v256h-48z" fill="#ffb431"/><path d="m144 392h48v96h-48z" fill="#f9a91b"/><path d="m192 232h16v160h-16z" fill="#8da662"/><path d="m192 264h16v96h-16z" fill="#7f9954"/><path d="m192 392h16v96h-16z" fill="#678240"/><path d="m144 155.313v52.687h16v-48h32v48h16v-48h24v48h16v-48h32v48h16v-48h32v48h16v-48h32v168h-24v16h48v16h-48v16h48v16h-48v16h136a8 8 0 0 0 8-8v-64a8 8 0 0 0 -8-8h-8v-40h-16v40h-32v-168h32v112h16v-116.687l13.657-13.656a8 8 0 0 0 2.343-5.657v-56a8 8 0 0 0 -5.574-7.624l-176-56a8.02 8.02 0 0 0 -4.852 0l-88 28 4.852 15.248 85.574-27.224 168 53.45v26.15h-336v-26.15l66.426-21.136-4.852-15.247-72 22.909a8 8 0 0 0 -5.574 7.624v56a8 8 0 0 0 2.343 5.657zm248 172.687v-168h24v168zm88 16v48h-64v-48zm-336-216h336v4.686l-11.314 11.314h-313.372l-11.314-11.314zm192-56a24 24 0 1 0 -24 24 24.027 24.027 0 0 0 24-24zm-32 0a8 8 0 1 1 8 8 8.009 8.009 0 0 1 -8-8zm-32 0v16h-16v-16zm96 0v16h-16v-16zm-344 424h304a8 8 0 0 0 8-8v-256a8 8 0 0 0 -8-8h-304a8 8 0 0 0 -8 8v32h16v-24h112v16h-64a8 8 0 0 0 -8 8 16 16 0 0 1 -16 16 8 8 0 0 0 -8 8v48a8 8 0 0 0 8 8 16 16 0 0 1 16 16 8 8 0 0 0 8 8h64v16h-112v-104h-16v208a8 8 0 0 0 8 8zm184-208a39.927 39.927 0 0 1 0 47.951zm20.813 5.337a56 56 0 0 0 -13.636-21.337h49.828a32.081 32.081 0 0 0 23 23v34.009a32.081 32.081 0 0 0 -23 23h-49.84a56.026 56.026 0 0 0 13.649-58.665zm-20.813 74.663h64a8 8 0 0 0 8-8 16 16 0 0 1 16-16 8 8 0 0 0 8-8v-48a8 8 0 0 0 -8-8 16 16 0 0 1 -16-16 8 8 0 0 0 -8-8h-64v-16h112v144h-112zm0 32h112v16h-112zm0 32h112v16h-112zm0 32h112v16h-112zm-48-224h32v240h-32zm-73 112a32.081 32.081 0 0 0 -23-23v-34a32.081 32.081 0 0 0 23-23h49.827a55.95 55.95 0 0 0 .013 80zm49-40a39.754 39.754 0 0 1 8-24v47.952a40.065 40.065 0 0 1 -8-23.952zm-104 88h112v16h-112zm0 32h112v16h-112zm0 32h112v16h-112zm56-160h16v16h-16zm176 16h-16v-16h16z"/></g></svg>