<svg id="Layer_35" enable-background="new 0 0 64 64" height="512" viewBox="0 0 64 64" width="512" xmlns="http://www.w3.org/2000/svg"><g fill="#f0bc5e"><path d="m20 22v-4h-5v8h1c0-2.209 1.791-4 4-4z"/><path d="m44 18v4c2.209 0 4 1.791 4 4h1v-8z"/><path d="m35.464 8.31 1.416-5.539c-1.54-.493-3.176-.771-4.88-.771s-3.34.278-4.88.771l1.416 5.539c.404 1.584 1.829 2.69 3.464 2.69s3.06-1.106 3.464-2.69z"/><path d="m16 56h7v-10.955l-7.745 3.168c-.087.036-.169.079-.255.116v8.671h1c0-.278 0-1 0-1z"/><path d="m48.745 48.214-7.745-3.169v10.955h7v1h1v-8.67c-.086-.038-.168-.081-.255-.116z"/></g><circle cx="38" cy="23" r="1"/><circle cx="26" cy="23" r="1"/><path d="m36 32h-2c0 1.103-.897 2-2 2s-2-.897-2-2h-2c0 2.206 1.794 4 4 4s4-1.794 4-4z"/><path d="m49.123 47.288-10.259-4.197c-1.132-.463-1.864-1.553-1.864-2.777v-.718c3.077-2.126 5.427-5.126 6.759-8.596h.241c2.757 0 5-2.243 5-5 0-2.414-1.721-4.434-4-4.899v-2.101h4c1.103 0 2-.897 2-2v-2c0-1.103-.897-2-2-2h-.763c-2.18-7.1-8.739-12-16.237-12s-14.057 4.9-16.237 12h-.763c-1.103 0-2 .897-2 2v2c0 1.103.897 2 2 2h4v2.101c-2.279.465-4 2.484-4 4.899 0 2.757 2.243 5 5 5h.241c1.332 3.471 3.682 6.47 6.759 8.596v.718c0 1.224-.732 2.313-1.864 2.776l-10.259 4.197c-6 2.456-9.877 8.231-9.877 14.713v1h54v-1c0-6.482-3.877-12.257-9.877-14.712zm-2.123-21.288c0 1.512-1.129 2.754-2.586 2.958.379-1.482.586-3.025.586-4.607v-1.167c1.161.414 2 1.514 2 2.816zm-15-23c6.409 0 12.051 4.052 14.146 10h-4.146v-2h-2v2h-2v-2h-2v2h-8v-2h-2v2h-2v-2h-2v2h-4.146c2.095-5.948 7.737-10 14.146-10zm-17 12h34l.001 2h-34.001zm2 11c0-1.302.839-2.402 2-2.816v1.167c0 1.582.207 3.125.586 4.607-1.457-.204-2.586-1.446-2.586-2.958zm4-1.649v-5.351h22v5.351c0 7.023-4.406 13.247-11 15.591-6.594-2.344-11-8.567-11-15.591zm10.684 17.597.316.106.316-.105c.947-.316 1.855-.702 2.719-1.152.102 1.066.53 2.051 1.217 2.828-.901 1.46-2.504 2.375-4.252 2.375s-3.351-.915-4.253-2.376c.688-.777 1.115-1.762 1.217-2.828.864.45 1.773.837 2.72 1.152zm-5.79 2.994c.086-.035.163-.083.246-.123 1.279 1.96 3.472 3.181 5.86 3.181s4.581-1.221 5.86-3.181c.083.04.161.088.247.123l1.228.503-7.335 8.069-7.335-8.069zm21.106 16.058h-30v-4h30zm-31.366-11.86 7.061-2.889 7.954 8.749h-15.649v6h-7.965c.373-5.255 3.665-9.842 8.599-11.86zm33.366 11.86v-6h-15.649l7.954-8.749 7.061 2.889c4.934 2.019 8.226 6.605 8.599 11.86z"/></svg>