<svg height="512" viewBox="0 0 64 64" width="512" xmlns="http://www.w3.org/2000/svg"><g id="files-document-protection-insurance-pen"><path d="m53 23h4v30h-4z" fill="#ff3051"/><path d="m57 19v4h-4v-4a2.006 2.006 0 0 1 2-2 2.015 2.015 0 0 1 2 2z" fill="#898890"/><path d="m57 53-2 8-2-8z" fill="#898890"/><path d="m55 23h2v30h-2z" fill="#cd2a00"/><path d="m57 19v4h-2v-6a2.015 2.015 0 0 1 2 2z" fill="#57565c"/><path d="m57 53-2 8v-8z" fill="#57565c"/><rect fill="#fee9ab" height="58" rx="2" width="36" x="13" y="3"/><path d="m40 11v6.41a8.01 8.01 0 0 1 -2.69 5.98l-6.31 5.61-6.31-5.61a8.01 8.01 0 0 1 -2.69-5.98v-6.41l9-4z" fill="#ffd422"/><path d="m23 30a3 3 0 0 1 -3 3h-7v12h-6.99l-3.01-2v-14l5-2h12a3 3 0 0 1 3 3z" fill="#ffc477"/><path d="m23 30a3.026 3.026 0 0 1 -.4 1.5 3.3 3.3 0 0 0 -.48-.62 2.993 2.993 0 0 0 -2.12-.88h-12l-5 2v-3l5-2h12a3 3 0 0 1 3 3z" fill="#ffa733"/><path d="m40 11v6.41a8.01 8.01 0 0 1 -2.69 5.98l-6.31 5.61-2-1.78 4.31-3.83a8.01 8.01 0 0 0 2.69-5.98v-6.41l-7-3.11 2-.89z" fill="#ebbf00"/><path d="m49 5v54a2.006 2.006 0 0 1 -2 2h-4a2.006 2.006 0 0 0 2-2v-54a2.006 2.006 0 0 0 -2-2h4a2.006 2.006 0 0 1 2 2z" fill="#ffde55"/><path d="m47 2h-32a3.009 3.009 0 0 0 -3 3v21h-4a.937.937 0 0 0 -.37.07l-5 2a1 1 0 0 0 -.63.93v14a1 1 0 0 0 .45.83l3.01 2a.967.967 0 0 0 .55.17h5.99v13a3.009 3.009 0 0 0 3 3h32a3.009 3.009 0 0 0 3-3v-54a3.009 3.009 0 0 0 -3-3zm-35.1 32h.1v10h-5.69l-2.31-1.54v-12.78l4.19-1.68h11.81a2 2 0 0 1 0 4h-9a1 1 0 0 0 -1 1 3.009 3.009 0 0 1 -3 3v2a5.009 5.009 0 0 0 4.9-4zm36.1 25a1 1 0 0 1 -1 1h-32a1 1 0 0 1 -1-1v-25h6a4 4 0 0 0 0-8h-6v-21a1 1 0 0 1 1-1h32a1 1 0 0 1 1 1z"/><path d="m31 20a1 1 0 0 0 .707-.293l5.657-5.657-1.414-1.414-4.95 4.95-2.122-2.122-1.414 1.414 2.829 2.829a1 1 0 0 0 .707.293z"/><path d="m40.41 10.09-9-4a.979.979 0 0 0 -.82 0l-9 4a.987.987 0 0 0 -.59.91v6.41a8.979 8.979 0 0 0 3.02 6.72l6.32 5.62a1 1 0 0 0 1.32 0l6.32-5.62a8.979 8.979 0 0 0 3.02-6.72v-6.41a.987.987 0 0 0 -.59-.91zm-1.41 7.32a7.014 7.014 0 0 1 -2.35 5.23l-5.65 5.02-5.65-5.02a7.014 7.014 0 0 1 -2.35-5.23v-5.76l8-3.56 8 3.56z"/><path d="m61 22h-3v-3a3 3 0 0 0 -6 0v34a.986.986 0 0 0 .03.24l2 8a1 1 0 0 0 1.94 0l2-8a.986.986 0 0 0 .03-.24v-29h2v9h2v-10a1 1 0 0 0 -1-1zm-6 34.88-.72-2.88h1.44zm1-4.88h-2v-28h2zm0-30h-2v-3a1 1 0 0 1 2 0z"/><path d="m18 38h4v2h-4z"/><path d="m24 38h20v2h-20z"/><path d="m18 44h4v2h-4z"/><path d="m24 44h20v2h-20z"/><path d="m18 50h4v2h-4z"/><path d="m24 50h20v2h-20z"/><path d="m18 56h4v2h-4z"/><path d="m24 56h20v2h-20z"/></g></svg>