<svg enable-background="new 0 0 64 64" height="512" viewBox="0 0 64 64" width="512" xmlns="http://www.w3.org/2000/svg"><g id="Icons"><g><path d="m50 60h-36c-1.105 0-2-.895-2-2v-4c0-1.105.895-2 2-2h36c1.105 0 2 .895 2 2v4c0 1.105-.895 2-2 2z" fill="#505050"/></g><g><path d="m16 58v-4c0-1.105.895-2 2-2h-4c-1.105 0-2 .895-2 2v4c0 1.105.895 2 2 2h4c-1.105 0-2-.895-2-2z" fill="#3c3c3c"/></g><g><path d="m48 52h-32c-1.105 0-2-.895-2-2 0-1.105.895-2 2-2h32c1.105 0 2 .895 2 2 0 1.105-.895 2-2 2z" fill="#f0f0f0"/></g><g><path d="m18 50c0-1.105.895-2 2-2h-4c-1.105 0-2 .895-2 2s.895 2 2 2h4c-1.105 0-2-.895-2-2z" fill="#d2d2d2"/></g><g><path d="m38 14c0-1.568.311-3.063.861-4.438-2.082-.991-4.402-1.562-6.861-1.562-8.837 0-16 7.163-16 16v24h32v-22.181c-5.666-.956-10-5.885-10-11.819z" fill="#fa6450"/></g><g><path d="m50 24c-5.523 0-10-4.477-10-10 0-5.523 4.477-10 10-10 5.523 0 10 4.477 10 10 0 5.523-4.477 10-10 10z" fill="#fab400"/></g><g><circle cx="50" cy="14" fill="#be7800" r="6"/></g><g><path d="m42 14c0-5.185 3.947-9.448 9-9.95-.329-.032-.662-.05-1-.05-5.523 0-10 4.477-10 10s4.477 10 10 10c.338 0 .671-.018 1-.05-5.053-.502-9-4.765-9-9.95z" fill="#dc9600"/></g><g><path d="m52 11.857v-1.428h-1.333v-1.429h-1.334v1.429h-1.333v4.285h2.667v1.429h-2.667v1.428h1.333v1.429h1.334v-1.429h1.333v-4.285h-2.667v-1.429z" fill="#fab400"/></g><g><path d="m34 8.138c-.657-.082-1.321-.138-2-.138-8.837 0-16 7.163-16 16v24h4v-24c0-8.158 6.11-14.876 14-15.862z" fill="#dc4632"/></g><g><circle cx="32" cy="32" fill="#f0f0f0" r="10"/></g><g><path d="m38 30h-4v-4h-4v4h-4v4h4v4h4v-4h4z" fill="#fa6450"/></g></g></svg>