<svg id="Capa_1" enable-background="new 0 0 512 512" height="512" viewBox="0 0 512 512" width="512" xmlns="http://www.w3.org/2000/svg"><g><path d="m412.16 153.405c.809 4.268-3.992 7.279-7.578 4.827-10.246-7.008-22.637-11.106-35.987-11.106-20.265 0-38.316 9.441-50.01 24.164-2.126 2.677-6.219 2.422-7.993-.5-11.197-18.436-31.453-30.754-54.592-30.754s-43.396 12.317-54.592 30.754c-1.774 2.922-5.867 3.177-7.993.5-11.694-14.723-29.745-24.164-50.01-24.164-13.35 0-25.741 4.097-35.987 11.106-3.586 2.453-8.386-.559-7.578-4.827 13.933-73.553 78.551-129.175 156.16-129.175s142.227 55.622 156.16 129.175z" fill="#d97b7b"/><path d="m412.16 153.405c-13.933-73.553-78.551-129.175-156.16-129.175-3.661 0-7.292.125-10.891.368 65.895 4.793 119.941 55.982 134.108 123.417 9.288 1.556 17.898 5.108 25.366 10.216 3.585 2.453 8.386-.558 7.577-4.826z" fill="#d16161"/><path d="m196.124 173.011c1.952.458 4.118-.302 5.284-2.222 11.197-18.436 31.453-30.754 54.592-30.754s43.396 12.317 54.592 30.754c1.166 1.92 3.332 2.68 5.284 2.222-7.515-85.938-31.475-148.781-59.876-148.781s-52.361 62.843-59.876 148.781z" fill="#bed9fd"/><path d="m314.061 320.037c-3.628-7.633-5.6-33.337-5.6-33.337h-104.922s-1.972 25.704-5.6 33.337c-5.149 10.832-31.67 36.034-31.67 36.034-25.914 29.485-30.088 72.232-10.368 106.173 15.198 26.159 43.167 42.256 73.421 42.256h53.356c30.254 0 58.222-16.097 73.421-42.256 19.72-33.942 15.546-76.688-10.368-106.173 0 0-26.521-25.203-31.67-36.034z" fill="#d09180"/><path d="m197.939 320.037c-.635 1.336-1.598 2.892-2.793 4.591h121.709c-1.196-1.699-2.158-3.255-2.793-4.591-3.628-7.633-5.6-33.337-5.6-33.337h-104.923s-1.972 25.704-5.6 33.337z" fill="#c77e67"/><path d="m342.317 222.12-8.618-11.615c-3.078-4.148-8.663-5.533-13.322-3.303l-21.446 10.264c-5.464 2.615-12.006 1.193-15.891-3.454l-14.126-16.898c-6.728-8.048-19.099-8.048-25.827 0l-14.126 16.898c-3.885 4.648-10.427 6.069-15.891 3.454l-21.446-10.264c-4.659-2.23-10.245-.845-13.322 3.303l-8.618 11.615c-3.514 4.735-2.706 11.393 1.838 15.15l44.072 36.444h80.812l44.072-36.444c4.544-3.757 5.352-10.415 1.839-15.15z" fill="#d09180"/><path d="m345.731 356.071s-26.521-25.203-31.67-36.034c-3.628-7.633-5.6-33.337-5.6-33.337h-26.695s1.972 25.704 5.6 33.337c5.149 10.832 31.67 36.034 31.67 36.034 25.914 29.485 30.088 72.232 10.368 106.173-15.198 26.159-43.167 42.256-73.421 42.256h26.695c30.254 0 58.222-16.097 73.421-42.256 19.72-33.941 15.546-76.688-10.368-106.173z" fill="#c77e67"/><path d="m342.317 222.12-8.618-11.615c-3.078-4.148-8.663-5.533-13.322-3.303l-11.677 5.589 6.922 9.33c3.514 4.735 2.706 11.393-1.838 15.15l-44.072 36.444h26.695l44.072-36.444c4.543-3.758 5.351-10.416 1.838-15.151z" fill="#c77e67"/><path d="m178.182 282.979c0 10.381 8.416 18.797 18.797 18.797h118.043c10.381 0 18.797-8.416 18.797-18.797s-8.416-18.797-18.797-18.797h-118.044c-10.381.001-18.796 8.416-18.796 18.797z" fill="#eec06b"/><g><path d="m419.529 152.009c-14.382-75.922-79.353-131.681-156.029-135.111v-9.398c0-4.143-3.358-7.5-7.5-7.5s-7.5 3.357-7.5 7.5v9.42c-26.813 1.207-52.984 8.843-76.115 22.307-3.58 2.083-4.792 6.675-2.709 10.254 2.084 3.58 6.676 4.795 10.255 2.709 14.544-8.465 30.412-14.397 46.884-17.621-6.523 8.666-11.686 19.29-15.558 29.064-9.685 24.449-16.903 56.54-21.078 93.487-12.87-11.222-29.333-17.492-46.774-17.492-12.341 0-24.295 3.137-34.922 9.119 6.84-29.544 22.229-55.997 44.753-76.815 3.042-2.812 3.229-7.557.417-10.599s-7.557-3.229-10.599-.417c-26.431 24.429-43.922 55.929-50.583 91.095-.929 4.903 1.168 9.837 5.344 12.566 4.228 2.766 9.658 2.705 13.837-.153 9.37-6.408 20.35-9.796 31.753-9.796 17.284 0 33.372 7.774 44.137 21.328 5.308 6.682 15.761 6.166 20.277-1.271 9.004-14.827 23.86-24.439 40.682-26.653v36.736c-4.309 1.393-8.187 3.972-11.164 7.534l-14.135 16.905c-1.684 2.02-4.52 2.635-6.893 1.5l-21.451-10.27c-7.876-3.77-17.372-1.412-22.58 5.604l-8.625 11.618c-5.878 7.937-4.523 19.089 3.087 25.392l19.351 16.003c-9.08 4.148-15.41 13.31-15.41 23.928 0 13.222 9.81 24.191 22.533 26.023-.979 5.237-1.765 7.226-2.048 7.816-3.313 6.966-20.198 24.438-30.063 33.814-.163.155-.319.317-.468.486-28.073 31.951-32.583 78.121-11.221 114.888 16.484 28.368 47.102 45.991 79.906 45.991h53.36c32.804 0 63.421-17.623 79.904-45.99 9.384-16.144 13.987-34.533 13.311-53.182-.15-4.14-3.638-7.357-7.767-7.224-4.14.15-7.374 3.627-7.224 7.767.573 15.813-3.331 31.409-11.29 45.102-13.807 23.764-39.455 38.527-66.934 38.527h-53.36c-27.479 0-53.127-14.763-66.935-38.527-18.064-31.091-14.315-70.112 9.304-97.205 3.798-3.622 27.578-26.553 33.019-37.994.557-1.166 2.065-4.326 3.69-13.997h95.206c1.625 9.671 3.132 12.83 3.683 13.984 5.447 11.455 29.229 34.387 33.025 38.007 5.47 6.271 9.965 13.297 13.363 20.887 1.247 2.785 3.983 4.438 6.85 4.438 1.024 0 2.065-.211 3.061-.656 3.78-1.693 5.473-6.13 3.78-9.91-4.058-9.063-9.441-17.442-16.002-24.906-.148-.169-.304-.331-.467-.485-9.863-9.373-26.747-26.841-30.069-33.827-.278-.582-1.063-2.568-2.042-7.804 12.723-1.832 22.533-12.802 22.533-26.023 0-10.618-6.329-19.779-15.41-23.928l19.355-16.006c7.607-6.3 8.961-17.452 3.078-25.396l-8.619-11.61c-5.208-7.016-14.705-9.374-22.582-5.604l-21.446 10.268c-2.377 1.137-5.213.521-6.901-1.504l-14.129-16.898c-2.978-3.563-6.856-6.142-11.165-7.535v-36.739c16.821 2.214 31.677 11.826 40.682 26.653 4.511 7.43 14.94 7.992 20.277 1.271 10.765-13.554 26.853-21.328 44.137-21.328 11.403 0 22.383 3.388 31.754 9.796 4.178 2.856 9.609 2.918 13.836.153 4.175-2.729 6.272-7.663 5.343-12.566zm-104.508 142.267h-118.042c-6.229 0-11.297-5.067-11.297-11.297s5.068-11.297 11.297-11.297h118.043c6.229 0 11.297 5.067 11.297 11.297s-5.069 11.297-11.298 11.297zm-37.74-75.462c6.082 7.29 16.314 9.518 24.888 5.42l21.449-10.27c1.414-.677 3.121-.249 4.061 1.016l8.614 11.603c1.137 1.535.875 3.692-.592 4.907l-30.463 25.192h-98.475l-30.459-25.189c-1.471-1.218-1.733-3.375-.602-4.902l8.62-11.61c.939-1.266 2.648-1.692 4.06-1.016l21.454 10.271c8.57 4.096 18.802 1.867 24.879-5.416l14.13-16.9c1.774-2.122 4.382-3.34 7.156-3.34s5.381 1.218 7.156 3.341zm-21.281-86.276c-19.222 0-37.079 7.519-50.262 20.679 9.714-79.074 32.361-121.487 50.262-121.487s40.548 42.413 50.262 121.486c-13.183-13.159-31.04-20.678-50.262-20.678zm112.595 7.088c-17.441 0-33.904 6.271-46.774 17.492-4.175-36.947-11.392-69.038-21.078-93.487-3.874-9.779-9.04-20.409-15.568-29.077 57.763 11.318 104.757 55.62 118.34 114.189-10.626-5.98-22.58-9.117-34.92-9.117z"/><path d="m256 444.788c4.142 0 7.5-3.357 7.5-7.5v-5.403c12.651-.815 22.695-11.361 22.695-24.215 0-13.384-10.888-24.271-24.271-24.271h-11.848c-5.112 0-9.271-4.159-9.271-9.271 0-4.574 3.333-8.375 7.695-9.127v2.355c0 4.143 3.358 7.5 7.5 7.5s7.5-3.357 7.5-7.5v-2.5h8.195c4.142 0 7.5-3.357 7.5-7.5s-3.358-7.5-7.5-7.5h-8.195v-5.347c0-4.143-3.358-7.5-7.5-7.5s-7.5 3.357-7.5 7.5v5.403c-12.651.815-22.695 11.361-22.695 24.215 0 13.384 10.888 24.271 24.271 24.271h11.848c5.112 0 9.271 4.159 9.271 9.271 0 4.574-3.333 8.375-7.695 9.127v-2.355c0-4.143-3.358-7.5-7.5-7.5s-7.5 3.357-7.5 7.5v2.5h-8.195c-4.142 0-7.5 3.357-7.5 7.5s3.358 7.5 7.5 7.5h8.195v5.347c0 4.143 3.358 7.5 7.5 7.5z"/></g></g></svg>