<svg width="20" height="20" viewBox="0 0 20 20" fill="none" xmlns="http://www.w3.org/2000/svg">
<rect x="-0.000976562" y="-3.05176e-05" width="20" height="20" rx="2" fill="#EAF3D8"/>
<path d="M9.99902 13.1875L9.2959 14.5938L9.99902 16C10.7757 16 11.4053 15.3704 11.4053 14.5938C11.4053 13.8171 10.7757 13.1875 9.99902 13.1875Z" fill="#9BC748"/>
<path d="M8.59277 14.5938C8.59277 15.3704 9.22237 16 9.99902 16V13.1875C9.22237 13.1875 8.59277 13.8171 8.59277 14.5938Z" fill="#B4D576"/>
<path d="M9.99902 4L8.59277 5.40625L9.99902 6.8125C10.4643 6.8125 10.8428 7.19099 10.8428 7.65625C10.8428 7.90417 10.734 8.13883 10.5442 8.3001L9.99902 8.76358L9.06152 10.624L9.99902 12.4844H11.4053V11.2596L12.3656 10.4431C13.1852 9.74666 13.6553 8.73093 13.6553 7.65625C13.6553 5.64018 12.0151 4 9.99902 4V4Z" fill="#9BC748"/>
<path d="M8.59277 9.9592V12.4844H9.99902V8.76361L8.59277 9.9592Z" fill="#B4D576"/>
<path d="M6.34277 7.65625V8.00781H9.15527V7.65625C9.15527 7.19099 9.53377 6.8125 9.99902 6.8125V4C7.98295 4 6.34277 5.64018 6.34277 7.65625Z" fill="#B4D576"/>
</svg>
