<?xml version="1.0"?>
<svg xmlns="http://www.w3.org/2000/svg" xmlns:xlink="http://www.w3.org/1999/xlink" version="1.1" id="Capa_1" x="0px" y="0px" viewBox="0 0 512 512" style="enable-background:new 0 0 512 512;" xml:space="preserve" width="512px" height="512px" class="hovered-paths"><g><g>
	<path style="fill:#333333" d="M450.207,485.164V512H61.793l0-28.601c-0.013-25.911,14.144-49.754,36.899-62.146l78.742-42.99   c10.359-5.616,16.801-16.465,16.772-28.248v-20.352c0.01-1.912-0.611-3.774-1.767-5.297c-15.571-20.359-26.97-43.592-33.543-68.366   v-26.483l-8.828-17.655v-52.966l8.828-17.655v-8.828c0,0-10.505-79.448,97.103-79.448s97.103,79.448,97.103,79.448v8.828   l8.828,8.828v61.793l-8.828,17.655V256c-6.573,24.774-17.972,48.006-33.543,68.365c-1.156,1.523-1.777,3.385-1.767,5.297v21.235   c-0.028,12.159,6.804,23.294,17.655,28.778l75.652,42.108C435.066,433.822,450.196,458.344,450.207,485.164z" data-original="#F29C1F" class="" data-old_color="#F29C1F"/>
	<g>
		<path style="fill:#BDC3C7" d="M388.414,158.897c-4.875,0-8.828-3.952-8.828-8.828v-8.828    c0-68.255-55.331-123.586-123.586-123.586S132.414,72.987,132.414,141.241v8.828c0,4.875-3.952,8.828-8.828,8.828    c-4.875,0-8.828-3.952-8.828-8.828v-8.828C114.759,63.236,177.995,0,256,0s141.241,63.236,141.241,141.241v8.828    c0,2.341-0.93,4.587-2.586,6.242C393,157.967,390.755,158.897,388.414,158.897z" data-original="#BDC3C7" class="hovered-path active-path"/>
		<path style="fill:#BDC3C7" d="M229.517,291.31h-79.448c-19.492-0.022-35.288-15.818-35.31-35.31v-26.483    c0-4.875,3.952-8.828,8.828-8.828c4.875,0,8.828,3.952,8.828,8.828V256c0.01,9.747,7.909,17.645,17.655,17.655h79.448    c4.875,0,8.828,3.952,8.828,8.828S234.393,291.31,229.517,291.31z" data-original="#BDC3C7" class="hovered-path active-path"/>
	</g>
	<path style="fill:#E6AF2A" d="M247.172,264.828h26.483c9.751,0,17.655,7.904,17.655,17.655l0,0   c0,9.751-7.904,17.655-17.655,17.655h-26.483c-9.751,0-17.655-7.905-17.655-17.655l0,0   C229.517,272.732,237.422,264.828,247.172,264.828z" data-original="#E6E7E8" class="" data-old_color="#E6E7E8"/>
	<g>
		<path style="fill:#E6AF2A" d="M123.586,141.241h35.31v88.276h-35.31c-9.751,0-17.655-7.904-17.655-17.655v-52.966    C105.931,149.146,113.836,141.241,123.586,141.241z" data-original="#95A5A5" class="" data-old_color="#95A5A5"/>
		<path style="fill:#E6AF2A" d="M388.414,229.517h-35.31v-88.276h35.31c9.751,0,17.655,7.904,17.655,17.655v52.966    C406.069,221.613,398.164,229.517,388.414,229.517z" data-original="#95A5A5" class="" data-old_color="#95A5A5"/>
	</g>
</g></g> </svg>
